<svg width="50" height="48" viewBox="0 0 50 48" fill="none" xmlns="http://www.w3.org/2000/svg">
<g filter="url(#filter0_d_0_142)">
<ellipse cx="25" cy="20" rx="20.3883" ry="20" fill="white"/>
<path fill-rule="evenodd" clip-rule="evenodd" d="M16.0641 14.2296C16.3826 13.9235 16.8989 13.9235 17.2174 14.2296L24.7961 21.513L32.3748 14.2296C32.6933 13.9235 33.2096 13.9235 33.5281 14.2296C33.8466 14.5356 33.8466 15.0319 33.5281 15.338L24.7961 23.7299L16.0641 15.338C15.7456 15.0319 15.7456 14.5356 16.0641 14.2296Z" fill="black"/>
<path fill-rule="evenodd" clip-rule="evenodd" d="M16.0641 20.4997C16.3826 20.1936 16.8989 20.1936 17.2174 20.4997L24.7961 27.7832L32.3748 20.4997C32.6933 20.1936 33.2096 20.1936 33.5281 20.4997C33.8466 20.8058 33.8466 21.302 33.5281 21.6081L24.7961 30L16.0641 21.6081C15.7456 21.302 15.7456 20.8058 16.0641 20.4997Z" fill="black"/>
</g>
<defs>
<filter id="filter0_d_0_142" x="0.611633" y="0" width="48.7767" height="48" filterUnits="userSpaceOnUse" color-interpolation-filters="sRGB">
<feFlood flood-opacity="0" result="BackgroundImageFix"/>
<feColorMatrix in="SourceAlpha" type="matrix" values="0 0 0 0 0 0 0 0 0 0 0 0 0 0 0 0 0 0 127 0" result="hardAlpha"/>
<feOffset dy="4"/>
<feGaussianBlur stdDeviation="2"/>
<feComposite in2="hardAlpha" operator="out"/>
<feColorMatrix type="matrix" values="0 0 0 0 0 0 0 0 0 0 0 0 0 0 0 0 0 0 0.05 0"/>
<feBlend mode="normal" in2="BackgroundImageFix" result="effect1_dropShadow_0_142"/>
<feBlend mode="normal" in="SourceGraphic" in2="effect1_dropShadow_0_142" result="shape"/>
</filter>
</defs>
</svg>
